<svg width="1921" height="1920" viewBox="0 0 1921 1920" fill="none" xmlns="http://www.w3.org/2000/svg">
<g id="duolingo_appicon_rounded" clip-path="url(#clip0_1_27)">
<g id="icon_avatar_03" clip-path="url(#clip1_1_27)">
<path id="Vector" fill-rule="evenodd" clip-rule="evenodd" d="M366.143 0H1555.46C1757.2 0 1920.71 163.501 1920.71 365.437V1554.75C1920.71 1756.5 1757.2 1920.19 1555.27 1920.19H366.143C164.207 1920 0.705811 1756.5 0.705811 1554.56V365.437C0.705811 163.501 164.207 0 366.143 0Z" fill="#50C800" style="fill:#50C800;fill:color(display-p3 0.3137 0.7843 0.0000);fill-opacity:1;"/>
<path id="Vector_2" fill-rule="evenodd" clip-rule="evenodd" d="M1920.77 1240.32V684.942C1899.03 631.88 1866.96 584.067 1827.2 543.942C1830.77 484.316 1817.46 423.942 1786.52 370.129C1766.28 334.88 1717.33 329.817 1689.96 360.192L1627.89 429.004C1627.52 428.817 1627.14 428.817 1626.77 428.63C1634.84 365.817 1624.15 300.942 1593.4 243.005C1574.27 207.005 1532.83 200.63 1504.33 229.88L1206.21 531.942C1202.83 535.129 1199.27 538.504 1195.9 541.88C1195.71 542.067 1195.33 542.254 1195.15 542.441C1065.58 659.817 863.646 664.692 740.27 556.88C732.584 548.441 724.521 540.379 716.083 532.504L417.397 230.067C388.896 200.817 347.459 207.192 328.334 243.192C297.771 300.942 286.896 365.441 294.771 427.88C294.208 428.067 293.646 428.067 293.083 428.254L231.771 360.192C204.397 329.817 155.458 334.88 135.021 370.129C104.646 422.817 91.3335 481.88 94.1459 540.379C54.9584 579.005 23.0835 625.129 0.583496 676.316V1249.13C67.896 1402.69 221.272 1510.13 399.584 1510.13H418.709C595.521 1510.13 747.771 1404.57 815.833 1253.07C881.272 1252.69 928.709 1252.5 958.145 1252.5C1021.9 1252.32 1071.58 1252.32 1107.21 1252.32C1175.08 1404.19 1327.71 1510.13 1504.71 1510.13H1518.21C1699.89 1510.13 1855.52 1398.57 1920.77 1240.32Z" fill="#8EE000" style="fill:#8EE000;fill:color(display-p3 0.5569 0.8784 0.0000);fill-opacity:1;"/>
<path id="Vector_3" fill-rule="evenodd" clip-rule="evenodd" d="M426.584 570C593.833 570 729.584 705.563 729.584 873V1052.44C729.584 1219.69 594.02 1355.44 426.584 1355.44C259.334 1355.44 123.583 1219.88 123.583 1052.44V873C123.583 705.563 259.334 570 426.584 570Z" fill="white" style="fill:white;fill-opacity:1;"/>
<path id="Vector_4" fill-rule="evenodd" clip-rule="evenodd" d="M1491.02 570C1658.28 570 1794.02 705.563 1794.02 873V1052.44C1794.02 1219.69 1658.45 1355.44 1491.02 1355.44C1323.77 1355.44 1188.02 1219.88 1188.02 1052.44V873C1188.02 705.563 1323.58 570 1491.02 570Z" fill="white" style="fill:white;fill-opacity:1;"/>
<path id="Vector_5" fill-rule="evenodd" clip-rule="evenodd" d="M473.271 744.008C552.583 744.008 617.082 808.32 617.082 887.821V1041.38C617.082 1120.69 552.771 1185.2 473.271 1185.2C393.958 1185.2 329.458 1120.88 329.458 1041.38V887.821C329.458 808.32 393.958 744.008 473.271 744.008Z" fill="#4B4B4B" style="fill:#4B4B4B;fill:color(display-p3 0.2940 0.2940 0.2940);fill-opacity:1;"/>
<path id="Vector_6" fill-rule="evenodd" clip-rule="evenodd" d="M960.782 1092.61C1051.72 1092.61 1125.41 1166.3 1125.41 1257.23V1314.42C1125.41 1405.36 1051.72 1479.05 960.782 1479.05C869.844 1479.05 796.158 1405.36 796.158 1314.42V1257.23C796.158 1166.3 869.844 1092.61 960.782 1092.61Z" fill="#F48000" style="fill:#F48000;fill:color(display-p3 0.9569 0.5020 0.0000);fill-opacity:1;"/>
<path id="Vector_7" d="M733.533 1272.98C753.221 1167.98 850.533 1092.23 966.971 1092.23C1072.91 1092.23 1168.72 1169.86 1188.03 1272.98V1281.42C1188.03 1287.98 1185.78 1290.61 1179.78 1289.86L967.158 1327.74C961.346 1327.74 960.595 1327.74 954.595 1327.74L741.782 1289.67C735.782 1290.42 733.533 1287.8 733.533 1281.24V1272.98Z" fill="#FFC200" style="fill:#FFC200;fill:color(display-p3 1.0000 0.7608 0.0000);fill-opacity:1;"/>
<path id="Vector_8" fill-rule="evenodd" clip-rule="evenodd" d="M925.909 1128.61C936.972 1125.98 948.41 1124.48 959.847 1124.48C972.036 1124.48 984.41 1125.98 996.597 1129.17C1021.35 1135.55 1038.6 1157.86 1038.6 1183.36C1038.6 1203.98 1021.91 1220.48 1001.47 1220.48H920.098C899.472 1220.48 882.972 1203.8 882.972 1183.36C882.784 1157.48 900.597 1134.8 925.909 1128.61Z" fill="#FFE747" style="fill:#FFE747;fill:color(display-p3 1.0000 0.9059 0.2784);fill-opacity:1;"/>
<path id="Vector_9" fill-rule="evenodd" clip-rule="evenodd" d="M1444.33 744.008C1523.65 744.008 1588.15 808.32 1588.15 887.821V1041.38C1588.15 1120.69 1523.83 1185.2 1444.33 1185.2C1365.02 1185.2 1300.52 1120.88 1300.52 1041.38V887.821C1300.71 808.32 1365.02 744.008 1444.33 744.008Z" fill="#4B4B4B" style="fill:#4B4B4B;fill:color(display-p3 0.2940 0.2940 0.2940);fill-opacity:1;"/>
<path id="Vector_10" d="M351.771 918.383C403.031 918.383 444.584 876.997 444.584 825.946C444.584 774.893 403.031 733.508 351.771 733.508C300.512 733.508 258.958 774.893 258.958 825.946C258.958 876.997 300.512 918.383 351.771 918.383Z" fill="white" style="fill:white;fill-opacity:1;"/>
<path id="Vector_11" d="M1308.77 918.383C1360.02 918.383 1401.58 876.997 1401.58 825.946C1401.58 774.893 1360.02 733.508 1308.77 733.508C1257.51 733.508 1215.95 774.893 1215.95 825.946C1215.95 876.997 1257.51 918.383 1308.77 918.383Z" fill="white" style="fill:white;fill-opacity:1;"/>
</g>
</g>
<defs>
<clipPath id="clip0_1_27">
<rect width="1921" height="1920" fill="white" style="fill:white;fill-opacity:1;"/>
</clipPath>
<clipPath id="clip1_1_27">
<rect width="1920" height="1920" fill="white" style="fill:white;fill-opacity:1;" transform="translate(0.705811)"/>
</clipPath>
</defs>
</svg>
